<svg xmlns="http://www.w3.org/2000/svg" version="1.1" xmlns:xlink="http://www.w3.org/1999/xlink" xmlns:svgjs="http://svgjs.dev/svgjs" width="1000" height="1000" viewBox="0 0 1000 1000"><rect width="1000" height="1000" fill="#ffffff"></rect><g transform="matrix(0.7,0,0,0.7,149.57575757575756,448.36781934687735)"><svg viewBox="0 0 396 59" data-background-color="#ffffff" preserveAspectRatio="xMidYMid meet" height="148" width="1000" xmlns="http://www.w3.org/2000/svg" xmlns:xlink="http://www.w3.org/1999/xlink"><g id="tight-bounds" transform="matrix(1,0,0,1,0.2400000000000091,-0.09557279407110286)"><svg viewBox="0 0 395.52 59.19113868874052" height="59.19113868874052" width="395.52"><g><svg viewBox="0 0 565.4800310637572 84.62633228258534" height="59.19113868874052" width="395.52"><g><rect width="5.522206931706557" height="73.48161992699161" x="149.98178504381355" y="5.572356177796863" fill="#454545" opacity="1" stroke-width="0" stroke="transparent" fill-opacity="1" class="rect-o-0" data-fill-palette-color="primary" rx="1%" id="o-0" data-palette-color="#454545"></rect></g><g transform="matrix(1,0,0,1,169.96003106375716,11.695824505046165)"><svg viewBox="0 0 395.52 61.23468327249301" height="61.23468327249301" width="395.52"><g id="textblocktransform"><svg viewBox="0 0 395.52 61.23468327249301" height="61.23468327249301" width="395.52" id="textblock"><g><svg viewBox="0 0 395.52 61.23468327249301" height="61.23468327249301" width="395.52"><g transform="matrix(1,0,0,1,0,0)"><svg width="395.52" viewBox="0.9000000357627869 -35.5 232.8300018310547 36.04999923706055" height="61.23468327249301" data-palette-color="#454545"><path d="M27.95-7.55L8.45-7.55 8.45-12.5 27.95-12.5 27.95-7.55ZM7.1 0L0.9 0 15.15-32.4 21.35-32.4 35.75 0 29.45 0 17-29.25 19.5-29.25 7.1 0ZM50.75 0.55L50.75 0.55Q47.25 0.55 44.4-1.1 41.55-2.75 39.9-5.68 38.25-8.6 38.25-12.4L38.25-12.4Q38.25-16.3 39.87-19.23 41.5-22.15 44.32-23.8 47.15-25.45 50.75-25.45L50.75-25.45Q53.9-25.45 56.07-24.43 58.25-23.4 59.52-21.63 60.8-19.85 61.37-17.5 61.95-15.15 61.95-12.4L61.95-12.4Q61.95-10.3 61.35-8.05 60.75-5.8 59.45-3.85 58.15-1.9 56-0.68 53.85 0.55 50.75 0.55ZM52.5-4.05L52.5-4.05Q55.3-4.05 57.3-5.15 59.3-6.25 60.32-8.13 61.35-10 61.35-12.4L61.35-12.4Q61.35-15.05 60.3-16.93 59.25-18.8 57.27-19.83 55.3-20.85 52.5-20.85L52.5-20.85Q48.45-20.85 46.25-18.5 44.05-16.15 44.05-12.4L44.05-12.4Q44.05-9.95 45.12-8.08 46.2-6.2 48.1-5.13 50-4.05 52.5-4.05ZM61.35-5.95L61.35-34.9 67-34.9 67 0 61.75 0Q61.65-1.15 61.5-2.85 61.35-4.55 61.35-5.95L61.35-5.95ZM85.3 0.55L85.3 0.55Q81.84 0.55 79-1.1 76.15-2.75 74.47-5.68 72.8-8.6 72.8-12.4L72.8-12.4Q72.8-16.3 74.5-19.23 76.2-22.15 79.12-23.8 82.05-25.45 85.7-25.45L85.7-25.45Q89.75-25.45 92.09-23.7 94.45-21.95 95.47-19 96.5-16.05 96.5-12.4L96.5-12.4Q96.5-10.3 95.9-8.05 95.3-5.8 94-3.85 92.7-1.9 90.55-0.68 88.4 0.55 85.3 0.55ZM87.05-4.05L87.05-4.05Q89.84-4.05 91.84-5.15 93.84-6.25 94.87-8.13 95.9-10 95.9-12.4L95.9-12.4Q95.9-15.05 94.84-16.93 93.8-18.8 91.82-19.8 89.84-20.8 87.05-20.8L87.05-20.8Q83-20.8 80.8-18.48 78.59-16.15 78.59-12.4L78.59-12.4Q78.59-9.95 79.67-8.08 80.75-6.2 82.65-5.13 84.55-4.05 87.05-4.05ZM95.9-5.95L95.9-24.9 101.55-24.9 101.55 0 96.3 0Q96.3 0 96.2-0.95 96.09-1.9 96-3.3 95.9-4.7 95.9-5.95L95.9-5.95ZM138.84-32.4L120.29-15.75 120.29-18.5 141.09 0 132.84 0 114.24-17 130.74-32.4 138.84-32.4ZM108.49 0L108.49-32.4 114.24-32.4 114.24 0 108.49 0ZM163.19-8.2L163.19-8.2 168.64-8.2Q168.24-5.65 166.62-3.68 164.99-1.7 162.29-0.58 159.59 0.55 155.79 0.55L155.79 0.55Q151.44 0.55 148.09-1.03 144.74-2.6 142.81-5.5 140.89-8.4 140.89-12.4L140.89-12.4Q140.89-16.35 142.77-19.3 144.64-22.25 147.94-23.85 151.24-25.45 155.59-25.45L155.59-25.45Q160.04-25.45 163.06-23.88 166.09-22.3 167.54-19.18 168.99-16.05 168.74-11.3L168.74-11.3 146.59-11.3Q146.84-9.2 147.99-7.55 149.14-5.9 151.09-4.95 153.04-4 155.69-4L155.69-4Q158.59-4 160.56-5.18 162.54-6.35 163.19-8.2ZM155.44-20.9L155.44-20.9Q151.99-20.9 149.79-19.25 147.59-17.6 146.94-15L146.94-15 163.09-15Q162.84-17.8 160.79-19.35 158.74-20.9 155.44-20.9ZM173.54-35.5L180.29-35.5 180.29-30.1 173.54-30.1 173.54-35.5ZM174.04 0L174.04-24.9 179.74-24.9 179.74 0 174.04 0ZM184.59-20.3L184.59-24.9 202.34-24.9 202.34-20.3 184.59-20.3ZM190.64 0L190.64-31.6 196.29-31.6 196.29 0 190.64 0ZM217.48 0.55L217.48 0.55Q214.03 0.55 211.18-1.1 208.33-2.75 206.66-5.68 204.98-8.6 204.98-12.4L204.98-12.4Q204.98-16.3 206.68-19.23 208.38-22.15 211.31-23.8 214.23-25.45 217.88-25.45L217.88-25.45Q221.93-25.45 224.28-23.7 226.63-21.95 227.66-19 228.68-16.05 228.68-12.4L228.68-12.4Q228.68-10.3 228.08-8.05 227.48-5.8 226.18-3.85 224.88-1.9 222.73-0.68 220.58 0.55 217.48 0.55ZM219.23-4.05L219.23-4.05Q222.03-4.05 224.03-5.15 226.03-6.25 227.06-8.13 228.08-10 228.08-12.4L228.08-12.4Q228.08-15.05 227.03-16.93 225.98-18.8 224.01-19.8 222.03-20.8 219.23-20.8L219.23-20.8Q215.18-20.8 212.98-18.48 210.78-16.15 210.78-12.4L210.78-12.4Q210.78-9.95 211.86-8.08 212.93-6.2 214.83-5.13 216.73-4.05 219.23-4.05ZM228.08-5.95L228.08-24.9 233.73-24.9 233.73 0 228.48 0Q228.48 0 228.38-0.95 228.28-1.9 228.18-3.3 228.08-4.7 228.08-5.95L228.08-5.95Z" opacity="1" transform="matrix(1,0,0,1,0,0)" fill="#454545" class="undefined-text-0" data-fill-palette-color="primary" id="text-0"></path></svg></g></svg></g></svg></g></svg></g><g><svg viewBox="0 0 135.5257459555765 84.62633228258534" height="84.62633228258534" width="135.5257459555765"><g><svg xmlns="http://www.w3.org/2000/svg" xmlns:xlink="http://www.w3.org/1999/xlink" version="1.1" x="0" y="0" viewBox="0 18.788999557495117 100 62.4429931640625" enable-background="new 0 0 100 100" xml:space="preserve" height="84.62633228258534" width="135.5257459555765" class="icon-icon-0" data-fill-palette-color="accent" id="icon-0"><g fill="#454545" data-fill-palette-color="accent"><g fill="#454545" data-fill-palette-color="accent"><path d="M97.938 68.771h-6.316V20.81c0-1.115-0.905-2.021-2.021-2.021H10.399c-1.115 0-2.021 0.906-2.021 2.021v47.961H2.062C0.924 68.771 0 69.694 0 70.832v2.084c0 0.103 0.008 0.204 0.022 0.306 0.527 3.521 3.348 7.447 7.159 7.922 0.083 0.01 0.169 0.017 0.252 0.017l84.51 0.071h0.003c4.404 0 7.604-4.197 8.041-8.085 0.009-0.075 0.013-0.152 0.013-0.23v-2.084C100 69.694 99.076 68.771 97.938 68.771zM12.42 22.831h75.16v45.939H59.985c-0.133 0-0.262 0.016-0.386 0.04H41.16c-0.128-0.025-0.261-0.04-0.396-0.04H12.42V22.831zM91.948 77.107L7.586 77.036c-1.461-0.261-3.024-2.16-3.434-4.143h35.086c0.702 1.246 2.017 2.085 3.519 2.085h15.233c1.502 0 2.816-0.839 3.52-2.085h34.35C95.538 74.926 93.854 77.107 91.948 77.107zM38.84 37.498c-0.814-0.814-2.133-0.814-2.947 0l-8.689 8.689c-0.814 0.814-0.814 2.133 0 2.948l8.689 8.688c0.407 0.407 0.94 0.611 1.474 0.611s1.066-0.204 1.474-0.611c0.814-0.813 0.814-2.133 0-2.947l-7.216-7.215 7.216-7.216C39.654 39.631 39.654 38.312 38.84 37.498zM59.361 57.823c0.406 0.407 0.939 0.611 1.474 0.611 0.533 0 1.066-0.204 1.474-0.611l8.688-8.688c0.814-0.814 0.814-2.133 0-2.948l-8.688-8.689c-0.814-0.814-2.134-0.814-2.947 0-0.814 0.814-0.814 2.133 0 2.947l7.215 7.216-7.215 7.215C58.547 55.69 58.547 57.01 59.361 57.823zM41.793 62.275c0.299 0.148 0.617 0.22 0.931 0.22 0.765 0 1.5-0.422 1.866-1.152l12.506-25.011c0.515-1.03 0.098-2.281-0.933-2.796-1.029-0.513-2.281-0.098-2.797 0.932L40.861 59.479C40.346 60.509 40.763 61.76 41.793 62.275z" fill="#454545" data-fill-palette-color="accent"></path></g></g></svg></g></svg></g></svg></g><defs></defs></svg><rect width="395.52" height="59.19113868874052" fill="none" stroke="none" visibility="hidden"></rect></g></svg></g></svg>